<svg width="8" height="16" viewBox="0 0 8 16" fill="none" xmlns="http://www.w3.org/2000/svg">
<path d="M2.48286 8.76938C2.38132 8.66867 2.30072 8.54885 2.24572 8.41683C2.19072 8.28482 2.16241 8.14322 2.16241 8.00021C2.16241 7.8572 2.19072 7.7156 2.24572 7.58358C2.30072 7.45157 2.38132 7.33175 2.48286 7.23104L7.45536 2.26937C7.55689 2.16866 7.63749 2.04885 7.69249 1.91683C7.74749 1.78482 7.7758 1.64322 7.7758 1.50021C7.7758 1.35719 7.74749 1.2156 7.69249 1.08358C7.63749 0.951569 7.55689 0.831751 7.45536 0.731041C7.25238 0.529269 6.97781 0.416016 6.69161 0.416016C6.4054 0.416016 6.13083 0.529269 5.92786 0.731041L0.955356 5.70354C0.346737 6.31292 0.00488281 7.13896 0.00488281 8.00021C0.00488281 8.86146 0.346737 9.6875 0.955356 10.2969L5.92786 15.2694C6.12964 15.4695 6.40199 15.5823 6.68619 15.5835C6.82876 15.5844 6.9701 15.557 7.10209 15.5031C7.23408 15.4492 7.35413 15.3698 7.45536 15.2694C7.55689 15.1687 7.63749 15.0488 7.69249 14.9168C7.74749 14.7848 7.7758 14.6432 7.7758 14.5002C7.7758 14.3572 7.74749 14.2156 7.69249 14.0836C7.63749 13.9516 7.55689 13.8318 7.45536 13.731L2.48286 8.76938Z" fill="#1E1E1E"/>
</svg>
