<svg width="18" height="18" viewBox="0 0 18 18" fill="none" xmlns="http://www.w3.org/2000/svg">
<path d="M17.1399 1.11828C16.9284 0.762031 16.4694 0.645031 16.1124 0.853531C15.9534 0.948031 12.5154 2.99628 9.00017 6.40953C5.48492 2.99628 2.04692 0.948031 1.88792 0.853531C1.53092 0.644281 1.07117 0.762031 0.860422 1.11828C0.649672 1.47528 0.767422 1.93503 1.12442 2.14578C1.16192 2.16753 4.54592 4.18353 7.94417 7.47603C7.93367 7.48653 7.92317 7.49778 7.91342 7.50828C4.06592 11.5658 1.70567 15.9623 1.60742 16.1475C1.41317 16.5128 1.55117 16.9673 1.91717 17.1623C2.02892 17.2223 2.15042 17.25 2.26892 17.25C2.53742 17.25 2.79692 17.106 2.93192 16.8525C2.95517 16.809 5.29217 12.4538 9.00017 8.54328C12.7014 12.447 15.0459 16.809 15.0684 16.8525C15.2034 17.106 15.4629 17.25 15.7314 17.25C15.8507 17.25 15.9707 17.2215 16.0832 17.1623C16.4484 16.9673 16.5872 16.5135 16.3929 16.1475C16.2947 15.9623 13.9344 11.5665 10.0869 7.50828C10.0764 7.49778 10.0667 7.48653 10.0562 7.47603C13.4499 4.18878 16.8384 2.16753 16.8759 2.14503C17.2329 1.93428 17.3507 1.47453 17.1399 1.11828Z" fill="black"/>
</svg>
